<?xml version="1.0" encoding="UTF-8"?>
<svg width="209px" height="38px" viewBox="0 0 209 38" version="1.1" xmlns="http://www.w3.org/2000/svg" xmlns:xlink="http://www.w3.org/1999/xlink">
    <!-- Generator: Sketch 44.1 (41455) - http://www.bohemiancoding.com/sketch -->
    <title>download-btn</title>
    <desc>Created with Sketch.</desc>
    <defs>
        <polygon id="path-1" points="0 37.5 207.3 37.5 207.3 0 0 0"></polygon>
    </defs>
    <g id="Page-11" stroke="none" stroke-width="1" fill="none" fill-rule="evenodd">
        <g id="section-1-copy-13" transform="translate(-287.000000, -608.000000)">
            <g id="download-btn" transform="translate(288.000000, 608.000000)">
                <path d="M52.3001,19.9 C52.3001,19.4 52.2001,19 52.1001,18.6 C52.0001,18.2 51.8001,17.9 51.5001,17.6 C51.3001,17.3 50.9001,17.1 50.6001,17 C50.2001,16.9 49.8001,16.8 49.4001,16.8 L47.6001,16.8 L47.6001,22.9 L49.4001,22.9 C49.8001,22.9 50.2001,22.8 50.6001,22.7 C51.0001,22.6 51.3001,22.4 51.5001,22.1 C51.7001,21.8 51.9001,21.5 52.1001,21.1 C52.2001,20.8 52.3001,20.4 52.3001,19.9 Z M54.0001,19.9 C54.0001,20.5 53.9001,21.1 53.7001,21.7 C53.5001,22.2 53.2001,22.7 52.8001,23.1 C52.4001,23.5 51.9001,23.8 51.3001,24 C50.7001,24.2 50.1001,24.3 49.4001,24.3 L45.9001,24.3 L45.9001,15.6 L49.4001,15.6 C50.1001,15.6 50.7001,15.7 51.3001,15.9 C51.9001,16.1 52.4001,16.4 52.8001,16.8 C53.2001,17.2 53.5001,17.6 53.7001,18.2 C53.9001,18.7 54.0001,19.3 54.0001,19.9 Z" id="Fill-1" fill="#AFAEA9"></path>
                <path d="M62.3997,19.9 C62.3997,19.4 62.2997,19 62.1997,18.6 C62.0997,18.2 61.8997,17.9 61.5997,17.6 C61.2997,17.3 61.0997,17.1 60.6997,17 C60.2997,16.9 59.8997,16.8 59.4997,16.8 C59.0997,16.8 58.6997,16.9 58.2997,17 C57.8997,17.1 57.5997,17.3 57.3997,17.6 C57.1997,17.9 56.9997,18.2 56.7997,18.6 C56.6997,19 56.5997,19.4 56.5997,19.9 C56.5997,20.4 56.6997,20.8 56.7997,21.2 C56.8997,21.6 57.0997,21.9 57.3997,22.2 C57.5997,22.5 57.9997,22.7 58.2997,22.8 C58.6997,22.9 59.0997,23 59.4997,23 C59.8997,23 60.2997,22.9 60.6997,22.8 C61.0997,22.7 61.3997,22.5 61.5997,22.2 C61.7997,21.9 61.9997,21.6 62.1997,21.2 C62.3997,20.8 62.3997,20.4 62.3997,19.9 M64.1997,19.9 C64.1997,20.5 64.0997,21.1 63.8997,21.7 C63.6997,22.3 63.3997,22.7 62.9997,23.1 C62.5997,23.5 62.0997,23.8 61.4997,24 C60.8997,24.2 60.2997,24.3 59.5997,24.3 C58.8997,24.3 58.2997,24.2 57.6997,24 C57.0997,23.8 56.5997,23.5 56.1997,23.1 C55.7997,22.7 55.4997,22.2 55.2997,21.7 C55.0997,21.2 54.9997,20.6 54.9997,19.9 C54.9997,19.3 55.0997,18.7 55.2997,18.1 C55.4997,17.5 55.7997,17.1 56.1997,16.7 C56.5997,16.3 57.0997,16 57.6997,15.8 C58.2997,15.6 58.8997,15.5 59.5997,15.5 C60.0997,15.5 60.4997,15.6 60.8997,15.7 C61.2997,15.8 61.6997,15.9 61.9997,16.1 C62.2997,16.3 62.5997,16.5 62.8997,16.8 C63.1997,17.1 63.3997,17.4 63.5997,17.7 C63.7997,18 63.8997,18.4 63.9997,18.8 C64.0997,19.1 64.1997,19.5 64.1997,19.9" id="Fill-3" fill="#AFAEA9"></path>
                <path d="M77.5999,15.6002 L74.7999,24.3002 L73.2999,24.3002 L71.2999,18.4002 C71.1999,18.3002 71.1999,18.1002 71.0999,17.9002 C71.0999,18.0002 71.0999,18.1002 70.9999,18.2002 C70.8999,18.3002 70.8999,18.4002 70.8999,18.4002 L68.8999,24.3002 L67.3999,24.3002 L64.5999,15.6002 L65.9999,15.6002 C66.0999,15.6002 66.2999,15.6002 66.3999,15.7002 C66.4999,15.8002 66.5999,15.9002 66.5999,16.0002 L68.0999,21.2002 C68.0999,21.3002 68.1999,21.5002 68.1999,21.6002 C68.1999,21.7002 68.2999,21.9002 68.2999,22.1002 C68.2999,21.9002 68.3999,21.8002 68.3999,21.6002 C68.3999,21.4002 68.4999,21.3002 68.4999,21.2002 L70.2999,16.0002 C70.2999,15.9002 70.3999,15.8002 70.4999,15.7002 C70.5999,15.6002 70.6999,15.6002 70.8999,15.6002 L71.3999,15.6002 C71.4999,15.6002 71.6999,15.6002 71.7999,15.7002 C71.8999,15.8002 71.9999,15.9002 71.9999,16.0002 L73.7999,21.2002 C73.8999,21.4002 73.9999,21.7002 73.9999,22.1002 C74.0999,21.8002 74.0999,21.5002 74.1999,21.2002 L75.6999,16.0002 C75.6999,15.9002 75.7999,15.8002 75.8999,15.7002 C75.9999,15.6002 76.0999,15.6002 76.2999,15.6002 L77.5999,15.6002 Z" id="Fill-5" fill="#AFAEA9"></path>
                <path d="M86.3997,15.6002 L86.3997,24.3002 L85.4997,24.3002 C85.3997,24.3002 85.2997,24.3002 85.1997,24.2002 C85.0997,24.2002 84.9997,24.1002 84.8997,24.0002 L80.0997,18.2002 L80.0997,18.9002 L80.0997,24.2002 L78.5997,24.2002 L78.5997,15.5002 L79.4997,15.5002 L79.6997,15.5002 L79.7997,15.5002 C79.7997,15.5002 79.8997,15.5002 79.8997,15.6002 L79.9997,15.7002 L84.7997,21.5002 L84.7997,21.1002 L84.7997,20.7002 L84.7997,15.4002 L86.3997,15.4002 L86.3997,15.6002 Z" id="Fill-7" fill="#AFAEA9"></path>
                <polygon id="Fill-9" fill="#AFAEA9" points="93.8001 22.9 93.8001 24.2 88.5001 24.2 88.5001 15.5 90.2001 15.5 90.2001 22.8 93.8001 22.8"></polygon>
                <path d="M101.5999,19.9 C101.5999,19.4 101.4999,19 101.3999,18.6 C101.2999,18.2 101.0999,17.9 100.7999,17.6 C100.4999,17.3 100.2999,17.1 99.8999,17 C99.4999,16.9 99.0999,16.8 98.6999,16.8 C98.2999,16.8 97.8999,16.9 97.4999,17 C97.0999,17.1 96.7999,17.3 96.5999,17.6 C96.3999,17.9 96.1999,18.2 95.9999,18.6 C95.8999,19 95.7999,19.4 95.7999,19.9 C95.7999,20.4 95.8999,20.8 95.9999,21.2 C96.0999,21.6 96.2999,21.9 96.5999,22.2 C96.7999,22.5 97.1999,22.7 97.4999,22.8 C97.8999,22.9 98.2999,23 98.6999,23 C99.0999,23 99.4999,22.9 99.8999,22.8 C100.2999,22.7 100.5999,22.5 100.7999,22.2 C100.9999,21.9 101.1999,21.6 101.3999,21.2 C101.4999,20.8 101.5999,20.4 101.5999,19.9 M103.2999,19.9 C103.2999,20.5 103.1999,21.1 102.9999,21.7 C102.7999,22.3 102.4999,22.7 102.0999,23.1 C101.6999,23.5 101.1999,23.8 100.5999,24 C99.9999,24.2 99.3999,24.3 98.6999,24.3 C97.9999,24.3 97.3999,24.2 96.7999,24 C96.1999,23.8 95.6999,23.5 95.2999,23.1 C94.8999,22.7 94.5999,22.2 94.3999,21.7 C94.1999,21.2 94.0999,20.6 94.0999,19.9 C94.0999,19.3 94.1999,18.7 94.3999,18.1 C94.5999,17.5 94.8999,17.1 95.2999,16.7 C95.6999,16.3 96.1999,16 96.7999,15.8 C97.3999,15.6 97.9999,15.5 98.6999,15.5 C99.1999,15.5 99.5999,15.6 99.9999,15.7 C100.3999,15.8 100.7999,15.9 101.0999,16.1 C101.3999,16.3 101.6999,16.5 101.9999,16.8 C102.2999,17.1 102.4999,17.4 102.6999,17.7 C102.8999,18 102.9999,18.4 103.0999,18.8 C103.2999,19.1 103.2999,19.5 103.2999,19.9" id="Fill-11" fill="#AFAEA9"></path>
                <path d="M109.3997,21.0001 L108.2997,18.1001 C108.1997,18.0001 108.1997,17.8001 108.0997,17.6001 C107.9997,17.4001 107.9997,17.2001 107.8997,17.0001 C107.7997,17.2001 107.7997,17.4001 107.6997,17.6001 C107.5997,17.8001 107.5997,17.9001 107.4997,18.1001 L106.3997,21.0001 L109.3997,21.0001 Z M112.3997,24.2001 L111.0997,24.2001 C110.9997,24.2001 110.7997,24.2001 110.6997,24.1001 C110.5997,24.0001 110.4997,23.9001 110.4997,23.8001 L109.7997,22.0001 L105.9997,22.0001 L105.2997,23.8001 C105.2997,23.9001 105.1997,24.0001 105.0997,24.1001 C104.9997,24.2001 104.8997,24.2001 104.6997,24.2001 L103.3997,24.2001 L106.9997,15.5001 L108.6997,15.5001 L112.3997,24.2001 Z" id="Fill-13" fill="#AFAEA9"></path>
                <path d="M119.7,19.9 C119.7,19.4 119.6,19 119.5,18.6 C119.4,18.2 119.2,17.9 118.9,17.6 C118.7,17.3 118.3,17.1 118,17 C117.6,16.9 117.2,16.8 116.8,16.8 L115,16.8 L115,22.9 L116.8,22.9 C117.2,22.9 117.6,22.8 118,22.7 C118.4,22.6 118.7,22.4 118.9,22.1 C119.1,21.8 119.3,21.5 119.5,21.1 C119.6,20.8 119.7,20.4 119.7,19.9 M121.4,19.9 C121.4,20.5 121.3,21.1 121.1,21.7 C120.9,22.2 120.6,22.7 120.2,23.1 C119.8,23.5 119.3,23.8 118.7,24 C118.1,24.2 117.5,24.3 116.8,24.3 L113.3,24.3 L113.3,15.6 L116.8,15.6 C117.5,15.6 118.1,15.7 118.7,15.9 C119.3,16.1 119.8,16.4 120.2,16.8 C120.6,17.2 120.9,17.6 121.1,18.2 C121.3,18.7 121.4,19.3 121.4,19.9" id="Fill-15" fill="#AFAEA9"></path>
                <path d="M130.8001,17.1002 C130.7001,17.2002 130.7001,17.2002 130.6001,17.3002 C130.5001,17.4002 130.5001,17.4002 130.4001,17.4002 C130.3001,17.4002 130.2001,17.4002 130.1001,17.3002 C130.0001,17.2002 129.9001,17.2002 129.7001,17.1002 C129.6001,17.0002 129.4001,17.0002 129.2001,16.9002 C129.0001,16.8002 128.8001,16.8002 128.5001,16.8002 C128.3001,16.8002 128.1001,16.8002 127.9001,16.9002 C127.7001,17.0002 127.6001,17.0002 127.5001,17.1002 C127.4001,17.2002 127.3001,17.3002 127.2001,17.4002 C127.1001,17.5002 127.1001,17.7002 127.1001,17.8002 C127.1001,18.0002 127.2001,18.2002 127.3001,18.3002 C127.4001,18.4002 127.6001,18.6002 127.8001,18.6002 C128.0001,18.7002 128.2001,18.8002 128.5001,18.9002 C128.8001,19.0002 129.0001,19.1002 129.3001,19.1002 C129.6001,19.1002 129.8001,19.3002 130.1001,19.4002 C130.4001,19.5002 130.6001,19.7002 130.8001,19.8002 C131.0001,20.0002 131.2001,20.2002 131.3001,20.4002 C131.4001,20.7002 131.5001,21.0002 131.5001,21.3002 C131.5001,21.7002 131.4001,22.1002 131.3001,22.4002 C131.2001,22.7002 131.0001,23.0002 130.7001,23.3002 C130.4001,23.6002 130.1001,23.8002 129.7001,23.9002 C129.3001,24.0002 128.9001,24.1002 128.4001,24.1002 C128.1001,24.1002 127.8001,24.1002 127.5001,24.0002 C127.2001,23.9002 126.9001,23.9002 126.7001,23.8002 C126.4001,23.7002 126.2001,23.6002 126.0001,23.4002 C125.8001,23.3002 125.6001,23.1002 125.4001,22.9002 L125.9001,22.1002 C125.9001,22.0002 126.0001,22.0002 126.1001,22.0002 C126.2001,22.0002 126.2001,21.9002 126.3001,21.9002 C126.4001,21.9002 126.5001,21.9002 126.6001,22.0002 C126.7001,22.1002 126.9001,22.2002 127.0001,22.3002 C127.2001,22.4002 127.4001,22.5002 127.6001,22.6002 C127.8001,22.7002 128.1001,22.7002 128.4001,22.7002 C128.9001,22.7002 129.3001,22.6002 129.5001,22.4002 C129.8001,22.2002 129.9001,21.9002 129.9001,21.5002 C129.9001,21.3002 129.8001,21.1002 129.7001,20.9002 C129.6001,20.7002 129.4001,20.6002 129.2001,20.5002 C129.0001,20.4002 128.8001,20.3002 128.5001,20.3002 C128.2001,20.2002 128.0001,20.2002 127.7001,20.1002 C127.4001,20.0002 127.2001,19.9002 126.9001,19.8002 C126.6001,19.7002 126.4001,19.5002 126.2001,19.4002 C126.0001,19.2002 125.8001,19.0002 125.7001,18.7002 C125.6001,18.4002 125.5001,18.1002 125.5001,17.7002 C125.5001,17.4002 125.6001,17.1002 125.7001,16.8002 C125.8001,16.5002 126.0001,16.2002 126.3001,16.0002 C126.6001,15.8002 126.9001,15.6002 127.2001,15.4002 C127.6001,15.3002 128.0001,15.2002 128.5001,15.2002 C129.0001,15.2002 129.5001,15.3002 130.0001,15.4002 C130.5001,15.6002 130.8001,15.8002 131.2001,16.1002 L130.8001,17.1002 Z" id="Fill-17" fill="#AFAEA9"></path>
                <path d="M139.0999,22.1998 C139.1999,22.1998 139.2999,22.1998 139.2999,22.2998 L139.9999,22.9998 C139.5999,23.3998 139.1999,23.7998 138.5999,23.9998 C138.0999,24.1998 137.3999,24.2998 136.6999,24.2998 C135.9999,24.2998 135.3999,24.1998 134.8999,23.9998 C134.3999,23.7998 133.8999,23.4998 133.4999,23.0998 C133.0999,22.6998 132.7999,22.1998 132.5999,21.6998 C132.3999,21.1998 132.2999,20.5998 132.2999,19.8998 C132.2999,19.1998 132.3999,18.6998 132.5999,18.0998 C132.7999,17.5998 133.0999,17.0998 133.4999,16.6998 C133.8999,16.2998 134.3999,15.9998 134.8999,15.7998 C135.3999,15.5998 136.0999,15.4998 136.6999,15.4998 C137.3999,15.4998 137.9999,15.5998 138.4999,15.7998 C138.9999,15.9998 139.4999,16.2998 139.7999,16.5998 L139.1999,17.3998 L139.0999,17.4998 C138.9999,17.4998 138.9999,17.5998 138.8999,17.5998 C138.7999,17.5998 138.7999,17.5998 138.6999,17.4998 C138.5999,17.4998 138.5999,17.3998 138.4999,17.3998 C138.3999,17.3998 138.2999,17.2998 138.1999,17.1998 C138.0999,17.0998 137.9999,17.0998 137.7999,16.9998 C137.6999,16.9998 137.4999,16.8998 137.2999,16.8998 C137.0999,16.8998 136.8999,16.7998 136.6999,16.7998 C136.2999,16.7998 135.8999,16.8998 135.5999,16.9998 C135.2999,17.0998 134.9999,17.2998 134.6999,17.5998 C134.4999,17.8998 134.2999,18.1998 134.0999,18.5998 C133.9999,18.9998 133.8999,19.3998 133.8999,19.8998 C133.8999,20.3998 133.9999,20.7998 134.0999,21.1998 C134.1999,21.5998 134.3999,21.8998 134.6999,22.1998 C134.8999,22.4998 135.1999,22.6998 135.5999,22.7998 C135.9999,22.8998 136.2999,22.9998 136.6999,22.9998 L137.2999,22.9998 C137.4999,22.9998 137.6999,22.8998 137.7999,22.8998 C137.9999,22.7998 138.0999,22.7998 138.1999,22.6998 C138.2999,22.5998 138.4999,22.4998 138.5999,22.3998 L138.6999,22.2998 C138.9999,22.1998 139.0999,22.1998 139.0999,22.1998" id="Fill-19" fill="#AFAEA9"></path>
                <polygon id="Fill-21" fill="#AFAEA9" points="148.8997 15.6002 148.8997 24.3002 147.1997 24.3002 147.1997 20.5002 142.8997 20.5002 142.8997 24.3002 141.1997 24.3002 141.1997 15.6002 142.8997 15.6002 142.8997 19.3002 147.1997 19.3002 147.1997 15.6002"></polygon>
                <polygon id="Fill-23" fill="#AFAEA9" points="152.5999 16.9 152.5999 19.3 155.7999 19.3 155.7999 20.5 152.5999 20.5 152.5999 23 156.5999 23 156.5999 24.3 150.8999 24.3 150.8999 15.6 156.5999 15.6 156.5999 16.9"></polygon>
                <path d="M164.4998,19.9 C164.4998,19.4 164.3998,19 164.2998,18.6 C164.1998,18.2 163.9998,17.9 163.6998,17.6 C163.4998,17.3 163.0998,17.1 162.7998,17 C162.3998,16.9 161.9998,16.8 161.5998,16.8 L159.7998,16.8 L159.7998,22.9 L161.5998,22.9 C161.9998,22.9 162.3998,22.8 162.7998,22.7 C163.1998,22.6 163.4998,22.4 163.6998,22.1 C163.8998,21.8 164.0998,21.5 164.2998,21.1 C164.3998,20.8 164.4998,20.4 164.4998,19.9 M166.1998,19.9 C166.1998,20.5 166.0998,21.1 165.8998,21.7 C165.6998,22.2 165.3998,22.7 164.9998,23.1 C164.5998,23.5 164.0998,23.8 163.4998,24 C162.8998,24.2 162.2998,24.3 161.5998,24.3 L158.0998,24.3 L158.0998,15.6 L161.5998,15.6 C162.2998,15.6 162.8998,15.7 163.4998,15.9 C164.0998,16.1 164.5998,16.4 164.9998,16.8 C165.3998,17.2 165.6998,17.6 165.8998,18.2 C166.0998,18.7 166.1998,19.3 166.1998,19.9" id="Fill-25" fill="#AFAEA9"></path>
                <path d="M171.3997,22.9 C171.6997,22.9 171.9997,22.8 172.2997,22.7 C172.5997,22.6 172.7997,22.5 172.9997,22.3 C173.1997,22.1 173.2997,21.9 173.3997,21.6 C173.4997,21.3 173.4997,21 173.4997,20.7 L173.4997,15.5 L175.1997,15.5 L175.1997,20.7 C175.1997,21.2 175.0997,21.7 174.8997,22.1 C174.6997,22.5 174.4997,22.9 174.0997,23.2 C173.6997,23.5 173.3997,23.8 172.8997,23.9 C172.3997,24.1 171.8997,24.2 171.2997,24.2 C170.6997,24.2 170.1997,24.1 169.6997,23.9 C169.1997,23.7 168.7997,23.5 168.4997,23.2 C168.1997,22.9 167.8997,22.5 167.6997,22.1 C167.4997,21.7 167.3997,21.2 167.3997,20.7 L167.3997,15.5 L169.0997,15.5 L169.0997,20.7 C169.0997,21 169.0997,21.3 169.1997,21.6 C169.2997,21.9 169.3997,22.1 169.5997,22.3 C169.7997,22.5 170.0007,22.6 170.2997,22.7 C170.7997,22.9 171.0997,22.9 171.3997,22.9" id="Fill-27" fill="#AFAEA9"></path>
                <polygon id="Fill-29" fill="#AFAEA9" points="182.3997 22.9 182.3997 24.2 177.0997 24.2 177.0997 15.5 178.7997 15.5 178.7997 22.8 182.3997 22.8"></polygon>
                <polygon id="Fill-31" fill="#AFAEA9" points="185.3001 16.9 185.3001 19.3 188.5001 19.3 188.5001 20.5 185.3001 20.5 185.3001 23 189.3001 23 189.3001 24.3 183.6001 24.3 183.6001 15.6 189.3001 15.6 189.3001 16.9"></polygon>
                <polygon id="Fill-33" fill="#AFAEA9" points="24.2 22.9 21.9 20.5 21.3 21 23.9 23.9 24.5 23.9 29.3 18.7 28.8 18.2"></polygon>
                <g id="Group">
                    <path d="M203.4998,37.0001 L3.6998,37.0001 C1.8998,37.0001 0.4998,35.3001 0.4998,33.2001 L0.4998,4.3001 C0.4998,2.2001 1.9998,0.5001 3.6998,0.5001 L203.5998,0.5001 C205.3998,0.5001 206.7998,2.2001 206.7998,4.3001 L206.7998,33.1001 C206.6998,35.3001 205.1998,37.0001 203.4998,37.0001 Z" id="Stroke-35" stroke="#AFAEA9"></path>
                    <mask id="mask-2" fill="white">
                        <use xlink:href="#path-1"></use>
                    </mask>
                    <g id="Clip-38"></g>
                </g>
                <polygon id="Stroke-37" stroke="#AFAEA9" points="16.8 28.9 31.7 28.9 31.7 8.5 16.8 8.5"></polygon>
            </g>
        </g>
    </g>
</svg>